{
    "asset" : {
        "generator" : "Khronos glTF Blender I/O v1.5.17",
        "version" : "2.0"
    },
    "scene" : 0,
    "scenes" : [
        {
            "name" : "Scene",
            "nodes" : [
                0
            ]
        }
    ],
    "nodes" : [
        {
            "mesh" : 0,
            "name" : "Cube",
            "scale" : [
                1,
                0.6182528138160706,
                2.514834403991699
            ],
            "translation" : [
                -1.1117407083511353,
                0.9692549705505371,
                -2
            ]
        }
    ],
    "materials" : [
        {
            "doubleSided" : true,
            "name" : "Wheel",
            "pbrMetallicRoughness" : {
                "baseColorFactor" : [
                    0.02720997855067253,
                    0.02720997855067253,
                    0.02720997855067253,
                    1
                ],
                "metallicFactor" : 0,
                "roughnessFactor" : 0.5
            }
        },
        {
            "doubleSided" : true,
            "name" : "Wheel in",
            "pbrMetallicRoughness" : {
                "baseColorFactor" : [
                    0.1424006223678589,
                    0.1424006223678589,
                    0.1424006223678589,
                    1
                ],
                "metallicFactor" : 0,
                "roughnessFactor" : 0.5
            }
        },
        {
            "doubleSided" : true,
            "name" : "Lights",
            "pbrMetallicRoughness" : {
                "baseColorFactor" : [
                    0.8000000715255737,
                    0.37996113300323486,
                    0.011544215492904186,
                    1
                ],
                "metallicFactor" : 0,
                "roughnessFactor" : 0.5
            }
        },
        {
            "doubleSided" : true,
            "name" : "Window",
            "pbrMetallicRoughness" : {
                "baseColorFactor" : [
                    0.037082307040691376,
                    0.21464627981185913,
                    0.8000000715255737,
                    1
                ],
                "metallicFactor" : 0,
                "roughnessFactor" : 0.5
            }
        },
        {
            "doubleSided" : true,
            "name" : "CarColour",
            "pbrMetallicRoughness" : {
                "baseColorFactor" : [
                    0.8000000715255737,
                    0.07167326658964157,
                    0.024301644414663315,
                    1
                ],
                "metallicFactor" : 0,
                "roughnessFactor" : 0.5
            }
        }
    ],
    "meshes" : [
        {
            "name" : "Cube.001",
            "primitives" : [
                {
                    "attributes" : {
                        "POSITION" : 0,
                        "NORMAL" : 1,
                        "TEXCOORD_0" : 2
                    },
                    "indices" : 3,
                    "material" : 0
                },
                {
                    "attributes" : {
                        "POSITION" : 4,
                        "NORMAL" : 5,
                        "TEXCOORD_0" : 6
                    },
                    "indices" : 7,
                    "material" : 1
                },
                {
                    "attributes" : {
                        "POSITION" : 8,
                        "NORMAL" : 9,
                        "TEXCOORD_0" : 10
                    },
                    "indices" : 11,
                    "material" : 2
                },
                {
                    "attributes" : {
                        "POSITION" : 12,
                        "NORMAL" : 13,
                        "TEXCOORD_0" : 14
                    },
                    "indices" : 15,
                    "material" : 3
                },
                {
                    "attributes" : {
                        "POSITION" : 16,
                        "NORMAL" : 17,
                        "TEXCOORD_0" : 18
                    },
                    "indices" : 19,
                    "material" : 4
                }
            ]
        }
    ],
    "accessors" : [
        {
            "bufferView" : 0,
            "componentType" : 5126,
            "count" : 700,
            "max" : [
                1.2465730905532837,
                0.9331953525543213,
                1
            ],
            "min" : [
                -1.2702915668487549,
                -1.1789543628692627,
                -1
            ],
            "type" : "VEC3"
        },
        {
            "bufferView" : 1,
            "componentType" : 5126,
            "count" : 700,
            "type" : "VEC3"
        },
        {
            "bufferView" : 2,
            "componentType" : 5126,
            "count" : 700,
            "type" : "VEC2"
        },
        {
            "bufferView" : 3,
            "componentType" : 5123,
            "count" : 2040,
            "type" : "SCALAR"
        },
        {
            "bufferView" : 4,
            "componentType" : 5126,
            "count" : 128,
            "max" : [
                1.2465730905532837,
                0.8505522012710571,
                0.9002176523208618
            ],
            "min" : [
                -1.2702915668487549,
                -1.096311330795288,
                -0.9219464063644409
            ],
            "type" : "VEC3"
        },
        {
            "bufferView" : 5,
            "componentType" : 5126,
            "count" : 128,
            "type" : "VEC3"
        },
        {
            "bufferView" : 6,
            "componentType" : 5126,
            "count" : 128,
            "type" : "VEC2"
        },
        {
            "bufferView" : 7,
            "componentType" : 5123,
            "count" : 360,
            "type" : "SCALAR"
        },
        {
            "bufferView" : 8,
            "componentType" : 5126,
            "count" : 8,
            "max" : [
                1,
                1,
                -1
            ],
            "min" : [
                -1,
                0.5536136031150818,
                -1
            ],
            "type" : "VEC3"
        },
        {
            "bufferView" : 9,
            "componentType" : 5126,
            "count" : 8,
            "type" : "VEC3"
        },
        {
            "bufferView" : 10,
            "componentType" : 5126,
            "count" : 8,
            "type" : "VEC2"
        },
        {
            "bufferView" : 11,
            "componentType" : 5123,
            "count" : 12,
            "type" : "SCALAR"
        },
        {
            "bufferView" : 12,
            "componentType" : 5126,
            "count" : 20,
            "max" : [
                1,
                2.6108148097991943,
                0.7871090173721313
            ],
            "min" : [
                -1,
                1.3661012649536133,
                -0.612148642539978
            ],
            "type" : "VEC3"
        },
        {
            "bufferView" : 13,
            "componentType" : 5126,
            "count" : 20,
            "type" : "VEC3"
        },
        {
            "bufferView" : 14,
            "componentType" : 5126,
            "count" : 20,
            "type" : "VEC2"
        },
        {
            "bufferView" : 15,
            "componentType" : 5123,
            "count" : 36,
            "type" : "SCALAR"
        },
        {
            "bufferView" : 16,
            "componentType" : 5126,
            "count" : 141,
            "max" : [
                1,
                2.6108148097991943,
                1
            ],
            "min" : [
                -1,
                -0.17904996871948242,
                -1
            ],
            "type" : "VEC3"
        },
        {
            "bufferView" : 17,
            "componentType" : 5126,
            "count" : 141,
            "type" : "VEC3"
        },
        {
            "bufferView" : 18,
            "componentType" : 5126,
            "count" : 141,
            "type" : "VEC2"
        },
        {
            "bufferView" : 19,
            "componentType" : 5123,
            "count" : 492,
            "type" : "SCALAR"
        }
    ],
    "bufferViews" : [
        {
            "buffer" : 0,
            "byteLength" : 8400,
            "byteOffset" : 0
        },
        {
            "buffer" : 0,
            "byteLength" : 8400,
            "byteOffset" : 8400
        },
        {
            "buffer" : 0,
            "byteLength" : 5600,
            "byteOffset" : 16800
        },
        {
            "buffer" : 0,
            "byteLength" : 4080,
            "byteOffset" : 22400
        },
        {
            "buffer" : 0,
            "byteLength" : 1536,
            "byteOffset" : 26480
        },
        {
            "buffer" : 0,
            "byteLength" : 1536,
            "byteOffset" : 28016
        },
        {
            "buffer" : 0,
            "byteLength" : 1024,
            "byteOffset" : 29552
        },
        {
            "buffer" : 0,
            "byteLength" : 720,
            "byteOffset" : 30576
        },
        {
            "buffer" : 0,
            "byteLength" : 96,
            "byteOffset" : 31296
        },
        {
            "buffer" : 0,
            "byteLength" : 96,
            "byteOffset" : 31392
        },
        {
            "buffer" : 0,
            "byteLength" : 64,
            "byteOffset" : 31488
        },
        {
            "buffer" : 0,
            "byteLength" : 24,
            "byteOffset" : 31552
        },
        {
            "buffer" : 0,
            "byteLength" : 240,
            "byteOffset" : 31576
        },
        {
            "buffer" : 0,
            "byteLength" : 240,
            "byteOffset" : 31816
        },
        {
            "buffer" : 0,
            "byteLength" : 160,
            "byteOffset" : 32056
        },
        {
            "buffer" : 0,
            "byteLength" : 72,
            "byteOffset" : 32216
        },
        {
            "buffer" : 0,
            "byteLength" : 1692,
            "byteOffset" : 32288
        },
        {
            "buffer" : 0,
            "byteLength" : 1692,
            "byteOffset" : 33980
        },
        {
            "buffer" : 0,
            "byteLength" : 1128,
            "byteOffset" : 35672
        },
        {
            "buffer" : 0,
            "byteLength" : 984,
            "byteOffset" : 36800
        }
    ],
    "buffers" : [
        {
            "byteLength" : 37784,
            "uri" : "data:application/octet-stream;base64,"
        }
    ]
}
