{
    "asset" : {
        "generator" : "Khronos glTF Blender I/O v1.5.17",
        "version" : "2.0"
    },
    "scene" : 0,
    "scenes" : [
        {
            "name" : "Scene",
            "nodes" : [
                8,
                9,
                10
            ]
        }
    ],
    "nodes" : [
        {
            "name" : "2"
        },
        {
            "name" : "1",
            "translation" : [
                1.8301750421524048,
                0.9329729676246643,
                -2.5172672271728516
            ]
        },
        {
            "name" : "5",
            "translation" : [
                -0.7670661807060242,
                3.538257360458374,
                -2.5172672271728516
            ]
        },
        {
            "name" : "4",
            "translation" : [
                0.9084745049476624,
                2.8693337440490723,
                0.5985114574432373
            ]
        },
        {
            "name" : "3",
            "translation" : [
                -0.960512638092041,
                0.6337184906005859,
                2.1652023792266846
            ]
        },
        {
            "name" : "7",
            "translation" : [
                1.7407406568527222,
                5.967509746551514,
                -3.6614797115325928
            ]
        },
        {
            "name" : "6",
            "translation" : [
                -0.8779330849647522,
                3.9255497455596924,
                -5.057496547698975
            ]
        },
        {
            "name" : "8",
            "translation" : [
                2.1888781900973294e-16,
                6.794863700866699,
                -1.161815881729126
            ]
        },
        {
            "mesh" : 0,
            "name" : "Clouds",
            "skin" : 0
        },
        {
            "children" : [
                0,
                1,
                2,
                3,
                4,
                5,
                6,
                7
            ],
            "name" : "Armature",
            "scale" : [
                6.977051258087158,
                6.977051258087158,
                6.977051258087158
            ],
            "translation" : [
                0,
                111.48674011230469,
                0
            ]
        },
        {
            "mesh" : 1,
            "name" : "Tower",
            "scale" : [
                37.770591735839844,
                10.991781234741211,
                37.770591735839844
            ],
            "translation" : [
                0,
                7.127459526062012,
                0
            ]
        }
    ],
    "animations" : [
        {
            "channels" : [
                {
                    "sampler" : 0,
                    "target" : {
                        "node" : 0,
                        "path" : "translation"
                    }
                },
                {
                    "sampler" : 1,
                    "target" : {
                        "node" : 0,
                        "path" : "rotation"
                    }
                },
                {
                    "sampler" : 2,
                    "target" : {
                        "node" : 0,
                        "path" : "scale"
                    }
                },
                {
                    "sampler" : 3,
                    "target" : {
                        "node" : 1,
                        "path" : "translation"
                    }
                },
                {
                    "sampler" : 4,
                    "target" : {
                        "node" : 1,
                        "path" : "rotation"
                    }
                },
                {
                    "sampler" : 5,
                    "target" : {
                        "node" : 1,
                        "path" : "scale"
                    }
                },
                {
                    "sampler" : 6,
                    "target" : {
                        "node" : 2,
                        "path" : "translation"
                    }
                },
                {
                    "sampler" : 7,
                    "target" : {
                        "node" : 2,
                        "path" : "rotation"
                    }
                },
                {
                    "sampler" : 8,
                    "target" : {
                        "node" : 2,
                        "path" : "scale"
                    }
                },
                {
                    "sampler" : 9,
                    "target" : {
                        "node" : 3,
                        "path" : "translation"
                    }
                },
                {
                    "sampler" : 10,
                    "target" : {
                        "node" : 3,
                        "path" : "rotation"
                    }
                },
                {
                    "sampler" : 11,
                    "target" : {
                        "node" : 3,
                        "path" : "scale"
                    }
                },
                {
                    "sampler" : 12,
                    "target" : {
                        "node" : 4,
                        "path" : "translation"
                    }
                },
                {
                    "sampler" : 13,
                    "target" : {
                        "node" : 4,
                        "path" : "rotation"
                    }
                },
                {
                    "sampler" : 14,
                    "target" : {
                        "node" : 4,
                        "path" : "scale"
                    }
                },
                {
                    "sampler" : 15,
                    "target" : {
                        "node" : 5,
                        "path" : "translation"
                    }
                },
                {
                    "sampler" : 16,
                    "target" : {
                        "node" : 5,
                        "path" : "rotation"
                    }
                },
                {
                    "sampler" : 17,
                    "target" : {
                        "node" : 5,
                        "path" : "scale"
                    }
                },
                {
                    "sampler" : 18,
                    "target" : {
                        "node" : 6,
                        "path" : "translation"
                    }
                },
                {
                    "sampler" : 19,
                    "target" : {
                        "node" : 6,
                        "path" : "rotation"
                    }
                },
                {
                    "sampler" : 20,
                    "target" : {
                        "node" : 6,
                        "path" : "scale"
                    }
                },
                {
                    "sampler" : 21,
                    "target" : {
                        "node" : 7,
                        "path" : "translation"
                    }
                },
                {
                    "sampler" : 22,
                    "target" : {
                        "node" : 7,
                        "path" : "rotation"
                    }
                },
                {
                    "sampler" : 23,
                    "target" : {
                        "node" : 7,
                        "path" : "scale"
                    }
                }
            ],
            "name" : "Shakes",
            "samplers" : [
                {
                    "input" : 13,
                    "interpolation" : "LINEAR",
                    "output" : 14
                },
                {
                    "input" : 13,
                    "interpolation" : "LINEAR",
                    "output" : 15
                },
                {
                    "input" : 13,
                    "interpolation" : "LINEAR",
                    "output" : 16
                },
                {
                    "input" : 13,
                    "interpolation" : "LINEAR",
                    "output" : 17
                },
                {
                    "input" : 13,
                    "interpolation" : "LINEAR",
                    "output" : 18
                },
                {
                    "input" : 13,
                    "interpolation" : "LINEAR",
                    "output" : 19
                },
                {
                    "input" : 13,
                    "interpolation" : "LINEAR",
                    "output" : 20
                },
                {
                    "input" : 13,
                    "interpolation" : "LINEAR",
                    "output" : 21
                },
                {
                    "input" : 13,
                    "interpolation" : "LINEAR",
                    "output" : 22
                },
                {
                    "input" : 13,
                    "interpolation" : "LINEAR",
                    "output" : 23
                },
                {
                    "input" : 13,
                    "interpolation" : "LINEAR",
                    "output" : 24
                },
                {
                    "input" : 13,
                    "interpolation" : "LINEAR",
                    "output" : 25
                },
                {
                    "input" : 13,
                    "interpolation" : "LINEAR",
                    "output" : 26
                },
                {
                    "input" : 13,
                    "interpolation" : "LINEAR",
                    "output" : 27
                },
                {
                    "input" : 13,
                    "interpolation" : "LINEAR",
                    "output" : 28
                },
                {
                    "input" : 13,
                    "interpolation" : "LINEAR",
                    "output" : 29
                },
                {
                    "input" : 13,
                    "interpolation" : "LINEAR",
                    "output" : 30
                },
                {
                    "input" : 13,
                    "interpolation" : "LINEAR",
                    "output" : 31
                },
                {
                    "input" : 13,
                    "interpolation" : "LINEAR",
                    "output" : 32
                },
                {
                    "input" : 13,
                    "interpolation" : "LINEAR",
                    "output" : 33
                },
                {
                    "input" : 13,
                    "interpolation" : "LINEAR",
                    "output" : 34
                },
                {
                    "input" : 13,
                    "interpolation" : "LINEAR",
                    "output" : 35
                },
                {
                    "input" : 13,
                    "interpolation" : "LINEAR",
                    "output" : 36
                },
                {
                    "input" : 13,
                    "interpolation" : "LINEAR",
                    "output" : 37
                }
            ]
        }
    ],
    "materials" : [
        {
            "alphaCutoff" : 0.5,
            "alphaMode" : "MASK",
            "doubleSided" : true,
            "name" : "Material.002",
            "pbrMetallicRoughness" : {
                "baseColorTexture" : {
                    "index" : 0
                },
                "metallicFactor" : 0,
                "roughnessFactor" : 0.5
            }
        },
        {
            "doubleSided" : true,
            "name" : "Material",
            "pbrMetallicRoughness" : {
                "baseColorFactor" : [
                    0.2680801749229431,
                    0.2810097336769104,
                    0.18597529828548431,
                    1
                ],
                "metallicFactor" : 0,
                "roughnessFactor" : 0.4000000059604645
            }
        }
    ],
    "meshes" : [
        {
            "name" : "Cylinder",
            "primitives" : [
                {
                    "attributes" : {
                        "POSITION" : 0,
                        "NORMAL" : 1,
                        "TEXCOORD_0" : 2,
                        "JOINTS_0" : 3,
                        "WEIGHTS_0" : 4
                    },
                    "indices" : 5,
                    "material" : 0
                }
            ]
        },
        {
            "name" : "Cylinder.001",
            "primitives" : [
                {
                    "attributes" : {
                        "POSITION" : 7,
                        "NORMAL" : 8,
                        "TEXCOORD_0" : 9,
                        "JOINTS_0" : 10,
                        "WEIGHTS_0" : 11
                    },
                    "indices" : 12,
                    "material" : 1
                }
            ]
        }
    ],
    "textures" : [
        {
            "sampler" : 0,
            "source" : 0
        }
    ],
    "images" : [
        {
            "bufferView" : 6,
            "mimeType" : "image/png",
            "name" : "Clouds"
        }
    ],
    "skins" : [
        {
            "inverseBindMatrices" : 6,
            "joints" : [
                0,
                1,
                2,
                3,
                4,
                5,
                6,
                7
            ],
            "name" : "Armature"
        }
    ],
    "accessors" : [
        {
            "bufferView" : 0,
            "componentType" : 5126,
            "count" : 32,
            "max" : [
                11.713489532470703,
                173.10105895996094,
                27.143735885620117
            ],
            "min" : [
                -5.824943542480469,
                106.35336303710938,
                -44.48459243774414
            ],
            "type" : "VEC3"
        },
        {
            "bufferView" : 1,
            "componentType" : 5126,
            "count" : 32,
            "type" : "VEC3"
        },
        {
            "bufferView" : 2,
            "componentType" : 5126,
            "count" : 32,
            "type" : "VEC2"
        },
        {
            "bufferView" : 3,
            "componentType" : 5121,
            "count" : 32,
            "type" : "VEC4"
        },
        {
            "bufferView" : 4,
            "componentType" : 5126,
            "count" : 32,
            "type" : "VEC4"
        },
        {
            "bufferView" : 5,
            "componentType" : 5123,
            "count" : 48,
            "type" : "SCALAR"
        },
        {
            "bufferView" : 7,
            "componentType" : 5126,
            "count" : 8,
            "type" : "MAT4"
        },
        {
            "bufferView" : 8,
            "componentType" : 5126,
            "count" : 522,
            "max" : [
                37.770591735839844,
                104.77777099609375,
                37.770591735839844
            ],
            "min" : [
                -37.770591735839844,
                -3.864321708679199,
                -37.770591735839844
            ],
            "type" : "VEC3"
        },
        {
            "bufferView" : 9,
            "componentType" : 5126,
            "count" : 522,
            "type" : "VEC3"
        },
        {
            "bufferView" : 10,
            "componentType" : 5126,
            "count" : 522,
            "type" : "VEC2"
        },
        {
            "bufferView" : 11,
            "componentType" : 5121,
            "count" : 522,
            "type" : "VEC4"
        },
        {
            "bufferView" : 12,
            "componentType" : 5126,
            "count" : 522,
            "type" : "VEC4"
        },
        {
            "bufferView" : 13,
            "componentType" : 5123,
            "count" : 2292,
            "type" : "SCALAR"
        },
        {
            "bufferView" : 14,
            "componentType" : 5126,
            "count" : 60,
            "max" : [
                2
            ],
            "min" : [
                0.03333333333333333
            ],
            "type" : "SCALAR"
        },
        {
            "bufferView" : 15,
            "componentType" : 5126,
            "count" : 60,
            "type" : "VEC3"
        },
        {
            "bufferView" : 16,
            "componentType" : 5126,
            "count" : 60,
            "type" : "VEC4"
        },
        {
            "bufferView" : 17,
            "componentType" : 5126,
            "count" : 60,
            "type" : "VEC3"
        },
        {
            "bufferView" : 18,
            "componentType" : 5126,
            "count" : 60,
            "type" : "VEC3"
        },
        {
            "bufferView" : 19,
            "componentType" : 5126,
            "count" : 60,
            "type" : "VEC4"
        },
        {
            "bufferView" : 20,
            "componentType" : 5126,
            "count" : 60,
            "type" : "VEC3"
        },
        {
            "bufferView" : 21,
            "componentType" : 5126,
            "count" : 60,
            "type" : "VEC3"
        },
        {
            "bufferView" : 22,
            "componentType" : 5126,
            "count" : 60,
            "type" : "VEC4"
        },
        {
            "bufferView" : 23,
            "componentType" : 5126,
            "count" : 60,
            "type" : "VEC3"
        },
        {
            "bufferView" : 24,
            "componentType" : 5126,
            "count" : 60,
            "type" : "VEC3"
        },
        {
            "bufferView" : 25,
            "componentType" : 5126,
            "count" : 60,
            "type" : "VEC4"
        },
        {
            "bufferView" : 26,
            "componentType" : 5126,
            "count" : 60,
            "type" : "VEC3"
        },
        {
            "bufferView" : 27,
            "componentType" : 5126,
            "count" : 60,
            "type" : "VEC3"
        },
        {
            "bufferView" : 28,
            "componentType" : 5126,
            "count" : 60,
            "type" : "VEC4"
        },
        {
            "bufferView" : 29,
            "componentType" : 5126,
            "count" : 60,
            "type" : "VEC3"
        },
        {
            "bufferView" : 30,
            "componentType" : 5126,
            "count" : 60,
            "type" : "VEC3"
        },
        {
            "bufferView" : 31,
            "componentType" : 5126,
            "count" : 60,
            "type" : "VEC4"
        },
        {
            "bufferView" : 32,
            "componentType" : 5126,
            "count" : 60,
            "type" : "VEC3"
        },
        {
            "bufferView" : 33,
            "componentType" : 5126,
            "count" : 60,
            "type" : "VEC3"
        },
        {
            "bufferView" : 34,
            "componentType" : 5126,
            "count" : 60,
            "type" : "VEC4"
        },
        {
            "bufferView" : 35,
            "componentType" : 5126,
            "count" : 60,
            "type" : "VEC3"
        },
        {
            "bufferView" : 36,
            "componentType" : 5126,
            "count" : 60,
            "type" : "VEC3"
        },
        {
            "bufferView" : 37,
            "componentType" : 5126,
            "count" : 60,
            "type" : "VEC4"
        },
        {
            "bufferView" : 38,
            "componentType" : 5126,
            "count" : 60,
            "type" : "VEC3"
        }
    ],
    "bufferViews" : [
        {
            "buffer" : 0,
            "byteLength" : 384,
            "byteOffset" : 0
        },
        {
            "buffer" : 0,
            "byteLength" : 384,
            "byteOffset" : 384
        },
        {
            "buffer" : 0,
            "byteLength" : 256,
            "byteOffset" : 768
        },
        {
            "buffer" : 0,
            "byteLength" : 128,
            "byteOffset" : 1024
        },
        {
            "buffer" : 0,
            "byteLength" : 512,
            "byteOffset" : 1152
        },
        {
            "buffer" : 0,
            "byteLength" : 96,
            "byteOffset" : 1664
        },
        {
            "buffer" : 0,
            "byteLength" : 565258,
            "byteOffset" : 1760
        },
        {
            "buffer" : 0,
            "byteLength" : 512,
            "byteOffset" : 567020
        },
        {
            "buffer" : 0,
            "byteLength" : 6264,
            "byteOffset" : 567532
        },
        {
            "buffer" : 0,
            "byteLength" : 6264,
            "byteOffset" : 573796
        },
        {
            "buffer" : 0,
            "byteLength" : 4176,
            "byteOffset" : 580060
        },
        {
            "buffer" : 0,
            "byteLength" : 2088,
            "byteOffset" : 584236
        },
        {
            "buffer" : 0,
            "byteLength" : 8352,
            "byteOffset" : 586324
        },
        {
            "buffer" : 0,
            "byteLength" : 4584,
            "byteOffset" : 594676
        },
        {
            "buffer" : 0,
            "byteLength" : 240,
            "byteOffset" : 599260
        },
        {
            "buffer" : 0,
            "byteLength" : 720,
            "byteOffset" : 599500
        },
        {
            "buffer" : 0,
            "byteLength" : 960,
            "byteOffset" : 600220
        },
        {
            "buffer" : 0,
            "byteLength" : 720,
            "byteOffset" : 601180
        },
        {
            "buffer" : 0,
            "byteLength" : 720,
            "byteOffset" : 601900
        },
        {
            "buffer" : 0,
            "byteLength" : 960,
            "byteOffset" : 602620
        },
        {
            "buffer" : 0,
            "byteLength" : 720,
            "byteOffset" : 603580
        },
        {
            "buffer" : 0,
            "byteLength" : 720,
            "byteOffset" : 604300
        },
        {
            "buffer" : 0,
            "byteLength" : 960,
            "byteOffset" : 605020
        },
        {
            "buffer" : 0,
            "byteLength" : 720,
            "byteOffset" : 605980
        },
        {
            "buffer" : 0,
            "byteLength" : 720,
            "byteOffset" : 606700
        },
        {
            "buffer" : 0,
            "byteLength" : 960,
            "byteOffset" : 607420
        },
        {
            "buffer" : 0,
            "byteLength" : 720,
            "byteOffset" : 608380
        },
        {
            "buffer" : 0,
            "byteLength" : 720,
            "byteOffset" : 609100
        },
        {
            "buffer" : 0,
            "byteLength" : 960,
            "byteOffset" : 609820
        },
        {
            "buffer" : 0,
            "byteLength" : 720,
            "byteOffset" : 610780
        },
        {
            "buffer" : 0,
            "byteLength" : 720,
            "byteOffset" : 611500
        },
        {
            "buffer" : 0,
            "byteLength" : 960,
            "byteOffset" : 612220
        },
        {
            "buffer" : 0,
            "byteLength" : 720,
            "byteOffset" : 613180
        },
        {
            "buffer" : 0,
            "byteLength" : 720,
            "byteOffset" : 613900
        },
        {
            "buffer" : 0,
            "byteLength" : 960,
            "byteOffset" : 614620
        },
        {
            "buffer" : 0,
            "byteLength" : 720,
            "byteOffset" : 615580
        },
        {
            "buffer" : 0,
            "byteLength" : 720,
            "byteOffset" : 616300
        },
        {
            "buffer" : 0,
            "byteLength" : 960,
            "byteOffset" : 617020
        },
        {
            "buffer" : 0,
            "byteLength" : 720,
            "byteOffset" : 617980
        }
    ],
    "samplers" : [
        {
            "magFilter" : 9729,
            "minFilter" : 9987
        }
    ],
    "buffers" : [
        {
            "byteLength" : 618700,
            "uri" : "data:application/octet-stream;base64,"
        }
    ]
}
